<svg id="Layer_1" data-name="Layer 1" xmlns="http://www.w3.org/2000/svg" viewBox="0 0 2842.78 534.61"><defs><style>.cls-1{fill:#fc531f;}</style></defs><polygon class="cls-1" points="2823.97 119.09 2842.78 12.51 2477.22 12.51 2458.43 119.1 2582.03 119.09 2509.85 526.92 2616.29 526.93 2688.21 119.1 2823.97 119.09"/><polygon class="cls-1" points="2042.78 526.93 2362.41 526.93 2381.28 419.94 2167.83 419.94 2184.73 323.69 2328.23 323.69 2416.54 217.73 2203.34 217.73 2220.65 119.09 2434.5 119.1 2453.15 12.52 2133.22 12.51 2042.78 526.93"/><polygon class="cls-1" points="2115.04 12.52 1978.31 12.51 1786.08 241.07 1826.48 12.51 1719.42 12.52 1628.81 526.92 1735.47 526.93 1775.35 301.74 1812.95 371.89 1896.05 526.93 2014.62 526.93 1886.01 286.78 2115.04 12.52"/><path class="cls-1" d="M885.68,442.4c19.37-109-60.16-196.85-170.07-196.85H416.88L327.74,352.1H697c51.13,0,88.2,39.6,79.19,90.3s-52.69,91.28-153.73,91.28h-446L87.15,640.12H441L419.84,760H526.08l21.14-119.85h77.9L690.73,760H808L733.25,622.82C808.49,591.64,871.47,522.27,885.68,442.4Z" transform="translate(-87.15 -233.03)"/><polygon class="cls-1" points="572.35 156.56 209.56 156.56 120.73 263 483.58 263 572.35 156.56"/><g id="GC2xeK"><path class="cls-1" d="M1059.26,767.53c-20.13,0-43.47-1.81-66.29-8-28.17-7.61-53-20.85-72.32-43.27-15.7-18.21-24.92-39.52-30.1-62.74-5.65-25.3-6.13-51-3.6-76.58,1.3-13.14,4.82-26.07,7.39-39.08q11.52-58.22,23.1-116.43c6.5-32.7,16.14-64.32,32.68-93.5,28.35-50,71-79.58,127.7-88.68a382.39,382.39,0,0,1,119-.05c28.18,4.31,54.18,14.5,76.32,33.15,22.51,18.95,35.9,43.38,43,71.57,5.67,22.52,6.62,45.41,5.87,68.51-.6,18.51-5.4,36.26-8.85,54.25-7.41,38.64-15.24,77.2-23,115.78-6.75,33.81-17,66.37-34.74,96.21-28.76,48.36-71.4,76-126.64,85C1106.89,767.27,1084.81,768,1059.26,767.53Zm-58.82-190.8c-.69,16.61.67,32.19,6.06,47.18,7.94,22.09,22.9,36.94,45.77,43.22a79,79,0,0,0,38.1.71c22.72-4.94,40.94-17.23,55.82-34.76,15.57-18.35,25.91-39.61,32.39-62.54,5-17.82,8.87-36,12.42-54.22,5.15-26.44,11.38-52.72,13.76-79.65,1.53-17.32.87-34.51-3.87-51.3-6.9-24.38-21.48-41.84-46.37-49.4-13.44-4.08-27-4-40.64-.8-25.07,5.91-44.22,20.57-59.34,40.88-17,22.76-26.78,48.75-32.79,76.16C1016.3,477,1011.82,502,1007,527,1003.69,543.68,1000.48,560.41,1000.44,576.73Z" transform="translate(-87.15 -233.03)"/></g><path class="cls-1" d="M1567.33,637.49c-12.81,15.31-28.69,26.2-49,30.08-30.74,5.87-59.29-9.19-71.09-37.45-7.18-17.22-8.77-35.24-8.3-53.57.53-20.36,4.43-40.29,8.17-60.23,4.55-24.25,8.75-48.57,14-72.67,5.51-25.39,13.65-50,28.11-72.13,9.94-15.22,22.47-27.76,40.34-34.14a80.43,80.43,0,0,1,42.36-3.18c19.82,3.73,32.41,16.34,40.3,33.78,6.42,14.17,8.56,29.23,9.22,44.53.23,5.26,0,10.53,0,15.79a145.15,145.15,0,0,1-.72,17.22l102.69.47c3-17.64,5.36-35.33,4.66-53.38-1-25.1-3.94-49.81-13.12-73.49-14.78-38.13-41.66-64.19-81.65-77.15-18.25-5.92-37.06-8.44-56.22-8.78-28.13-.5-56.2-.23-83.76,6.35-30.2,7.21-56.42,21.15-77.85,43.25-19.67,20.29-33,44.22-42.9,70.14-11,28.72-16.37,58.69-21.33,88.77-5.13,31-10.61,62-15.56,93.09-3,19.14-7.41,38.11-7.81,57.62-.56,27.78,1.43,55.22,10.25,81.85,7.06,21.31,18.2,40.26,35.07,55.78,18,16.58,39.67,26.34,63.62,31.72,19.6,4.41,39.52,5.2,59.56,5.4,12.84-.77,25.69-1.33,38.49-2.4a187.61,187.61,0,0,0,20.37-3.11c32.6-6.42,60.94-20.56,83.95-44.2,19.79-20.33,33.11-44.39,43.08-70.41,10.4-27.15,15.69-55.46,20.59-83.87l-101-.46C1595.5,589.65,1585.84,615.38,1567.33,637.49Z" transform="translate(-87.15 -233.03)"/></svg>